<svg width="13" height="15" viewBox="0 0 13 15" fill="none" xmlns="http://www.w3.org/2000/svg">
<path d="M1.44444 15H11.5556C12.3522 15 13 14.3273 13 13.5V3C13 2.17275 12.3522 1.5 11.5556 1.5H10.1111V0H8.66667V1.5H4.33333V0H2.88889V1.5H1.44444C0.647833 1.5 0 2.17275 0 3V13.5C0 14.3273 0.647833 15 1.44444 15ZM11.5556 4.5L11.5563 13.5H1.44444V4.5H11.5556Z" fill="#50A6FB"/>
<rect x="4" y="7" width="2" height="2" fill="#50A6FB"/>
<rect x="7" y="7" width="2" height="2" fill="#50A6FB"/>
<rect x="7" y="10" width="2" height="2" fill="#50A6FB"/>
<rect x="4" y="10" width="2" height="2" fill="#50A6FB"/>
</svg>
