<svg width="105" height="31" viewBox="0 0 105 31" fill="none" xmlns="http://www.w3.org/2000/svg">
<path d="M45.2912 15.3679C45.2912 14.2586 45.5312 13.2719 46.0112 12.4079C46.4912 11.5333 47.1579 10.8559 48.0112 10.3759C48.8752 9.88527 49.8512 9.63994 50.9392 9.63994C52.2725 9.63994 53.4139 9.99194 54.3632 10.6959C55.3125 11.3999 55.9472 12.3599 56.2672 13.5759H53.2592C53.0352 13.1066 52.7152 12.7493 52.2992 12.5039C51.8939 12.2586 51.4299 12.1359 50.9072 12.1359C50.0645 12.1359 49.3819 12.4293 48.8592 13.0159C48.3365 13.6026 48.0752 14.3866 48.0752 15.3679C48.0752 16.3493 48.3365 17.1333 48.8592 17.7199C49.3819 18.3066 50.0645 18.5999 50.9072 18.5999C51.4299 18.5999 51.8939 18.4773 52.2992 18.2319C52.7152 17.9866 53.0352 17.6293 53.2592 17.1599H56.2672C55.9472 18.3759 55.3125 19.3359 54.3632 20.0399C53.4139 20.7333 52.2725 21.0799 50.9392 21.0799C49.8512 21.0799 48.8752 20.8399 48.0112 20.3599C47.1579 19.8693 46.4912 19.1919 46.0112 18.3279C45.5312 17.4639 45.2912 16.4773 45.2912 15.3679ZM66.0227 9.76794V11.9599H63.0467V20.9999H60.3107V11.9599H57.3347V9.76794H66.0227ZM73.1238 20.9999L70.7878 16.7599H70.1318V20.9999H67.3958V9.76794H71.9878C72.8731 9.76794 73.6251 9.92261 74.2438 10.2319C74.8731 10.5413 75.3425 10.9679 75.6518 11.5119C75.9611 12.0453 76.1158 12.6426 76.1158 13.3039C76.1158 14.0506 75.9025 14.7173 75.4758 15.3039C75.0598 15.8906 74.4411 16.3066 73.6198 16.5519L76.2118 20.9999H73.1238ZM70.1318 14.8239H71.8278C72.3291 14.8239 72.7025 14.7013 72.9478 14.4559C73.2038 14.2106 73.3318 13.8639 73.3318 13.4159C73.3318 12.9893 73.2038 12.6533 72.9478 12.4079C72.7025 12.1626 72.3291 12.0399 71.8278 12.0399H70.1318V14.8239ZM80.5693 18.8879H84.1533V20.9999H77.8333V9.76794H80.5693V18.8879ZM93.5703 16.6319H90.7863V19.4799H88.1943V16.6319H85.4103V14.1839H88.1943V11.3199H90.7863V14.1839H93.5703V16.6319ZM103.585 9.76794V11.9599H100.609V20.9999H97.8732V11.9599H94.8972V9.76794H103.585Z" fill="#1476FF"/>
<g opacity="0.64">
<path d="M24.4288 9.7032L20.3274 24.1955L25.9876 27.2863L30.6791 9.02783L37.0072 8.34404L39.9656 0.999825L13.149 3.89749L9.7756 11.2865L24.4288 9.7032ZM7.60966 16.0092L2.29958 26.5999L9.075 29.5703L14.029 18.8405L7.60966 16.0092Z" fill="#4DD1FF"/>
<path d="M24.4288 9.7032L20.3274 24.1955L25.9876 27.2863L30.6791 9.02783L37.0072 8.34404L39.9656 0.999825L13.149 3.89749L9.7756 11.2865L24.4288 9.7032ZM7.60966 16.0092L2.29958 26.5999L9.075 29.5703L14.029 18.8405L7.60966 16.0092Z" stroke="#1A75F9"/>
</g>
<path d="M26.8407 8.85014L22.6702 23.5868L28.4259 26.7298L33.1964 8.16338L39.6312 7.46806L42.6395 9.40822e-07L15.3707 2.94653L11.9404 10.4602L26.8407 8.85014ZM9.73799 15.2625L4.33836 26.0318L11.228 29.0522L16.2655 18.1415L9.73799 15.2625Z" fill="#1A75F9"/>
<path d="M26.8407 8.85014L22.6702 23.5868L28.4259 26.7298L33.1964 8.16338L39.6312 7.46806L42.6395 9.40822e-07L15.3707 2.94653L11.9404 10.4602L26.8407 8.85014ZM9.73799 15.2625L4.33836 26.0318L11.228 29.0522L16.2655 18.1415L9.73799 15.2625Z" stroke="#29B94F"/>
</svg>
