<svg width="10" height="10" viewBox="0 0 10 10" fill="none" xmlns="http://www.w3.org/2000/svg">
<path d="M8.96766 4.10634C6.02989 3.70279 3.49655 5.88412 3.66678 8.77745M2.55566 3.2219C2.55566 3.45764 2.64931 3.68374 2.81601 3.85044C2.98271 4.01713 3.2088 4.11079 3.44455 4.11079C3.6803 4.11079 3.90639 4.01713 4.07309 3.85044C4.23979 3.68374 4.33344 3.45764 4.33344 3.2219C4.33344 2.98615 4.23979 2.76006 4.07309 2.59336C3.90639 2.42666 3.6803 2.33301 3.44455 2.33301C3.2088 2.33301 2.98271 2.42666 2.81601 2.59336C2.64931 2.76006 2.55566 2.98615 2.55566 3.2219Z" stroke="#8D8D8D" stroke-width="0.5" stroke-linecap="round" stroke-linejoin="round"/>
<path d="M1 5.47353C2.23556 5.30242 3.34444 5.8993 3.944 6.8513" stroke="#8D8D8D" stroke-width="0.5" stroke-linecap="round" stroke-linejoin="round"/>
<path d="M1 3.84444C1 2.84889 1 2.35111 1.19378 1.97067C1.36422 1.63617 1.63617 1.36422 1.97067 1.19378C2.35111 1 2.84889 1 3.84444 1H6.15556C7.15111 1 7.64889 1 8.02933 1.19378C8.36383 1.36422 8.63578 1.63617 8.80622 1.97067C9 2.35111 9 2.84889 9 3.84444V6.15556C9 7.15111 9 7.64889 8.80622 8.02933C8.63578 8.36383 8.36383 8.63578 8.02933 8.80622C7.64889 9 7.15111 9 6.15556 9H3.84444C2.84889 9 2.35111 9 1.97067 8.80622C1.63617 8.63578 1.36422 8.36383 1.19378 8.02933C1 7.64889 1 7.15111 1 6.15556V3.84444Z" stroke="#8D8D8D" stroke-width="0.5" stroke-linecap="round" stroke-linejoin="round"/>
</svg>
