<svg width="11" height="11" viewBox="0 0 11 11" fill="none" xmlns="http://www.w3.org/2000/svg">
<path d="M4.95 8.25H6.05V4.95H4.95V8.25ZM5.5 3.85C5.65583 3.85 5.78655 3.7972 5.89215 3.6916C5.99775 3.586 6.05036 3.45547 6.05 3.3C6.04963 3.14453 5.99683 3.014 5.8916 2.9084C5.78636 2.8028 5.65583 2.75 5.5 2.75C5.34416 2.75 5.21363 2.8028 5.1084 2.9084C5.00316 3.014 4.95036 3.14453 4.95 3.3C4.94963 3.45547 5.00243 3.58618 5.1084 3.69215C5.21436 3.79812 5.3449 3.85073 5.5 3.85ZM5.5 11C4.73916 11 4.02417 10.8555 3.355 10.5666C2.68583 10.2777 2.10375 9.88588 1.60875 9.39125C1.11375 8.89661 0.721967 8.31453 0.4334 7.645C0.144834 6.97546 0.000367363 6.26046 6.96202e-07 5.5C-0.00036597 4.73953 0.144101 4.02453 0.4334 3.355C0.7227 2.68547 1.11448 2.10338 1.60875 1.60875C2.10302 1.11412 2.6851 0.722333 3.355 0.4334C4.0249 0.144467 4.7399 0 5.5 0C6.2601 0 6.9751 0.144467 7.645 0.4334C8.31489 0.722333 8.89698 1.11412 9.39125 1.60875C9.88551 2.10338 10.2775 2.68547 10.5671 3.355C10.8568 4.02453 11.0011 4.73953 11 5.5C10.9989 6.26046 10.8544 6.97546 10.5666 7.645C10.2788 8.31453 9.88698 8.89661 9.39125 9.39125C8.89551 9.88588 8.31343 10.2778 7.645 10.5671C6.97656 10.8564 6.26156 11.0007 5.5 11ZM5.5 9.9C6.72833 9.9 7.76875 9.47375 8.62124 8.62125C9.47374 7.76875 9.89999 6.72833 9.89999 5.5C9.89999 4.27167 9.47374 3.23125 8.62124 2.37875C7.76875 1.52625 6.72833 1.1 5.5 1.1C4.27166 1.1 3.23125 1.52625 2.37875 2.37875C1.52625 3.23125 1.1 4.27167 1.1 5.5C1.1 6.72833 1.52625 7.76875 2.37875 8.62125C3.23125 9.47375 4.27166 9.9 5.5 9.9Z" fill="#B6B6B5"/>
</svg>
